<svg width="24" height="24" viewBox="0 0 24 24" fill="none" xmlns="http://www.w3.org/2000/svg">
<path fill-rule="evenodd" clip-rule="evenodd" d="M17.8026 6.03756C16.0735 4.33116 13.294 4.33116 11.5648 6.03756L9.94914 7.63197C9.59535 7.98111 9.02551 7.97733 8.67637 7.62354C8.32724 7.26975 8.33102 6.69991 8.68481 6.35078L10.3005 4.75636C12.7306 2.35823 16.6368 2.35823 19.067 4.75636C21.5431 7.19987 21.5431 11.1963 19.0669 13.6398L17.552 15.1348C17.1982 15.4839 16.6284 15.4801 16.2793 15.1263C15.9301 14.7725 15.9339 14.2027 16.2877 13.8536L17.8026 12.3586C19.5645 10.6199 19.5645 7.77625 17.8026 6.03756ZM7.72143 8.56591C8.07056 8.91971 8.06679 9.48954 7.71299 9.83868L6.19807 11.3336C4.43619 13.0723 4.43619 15.916 6.19807 17.6547C7.92724 19.3611 10.7067 19.3611 12.4359 17.6547L14.0516 16.0603C14.4054 15.7111 14.9752 15.7149 15.3243 16.0687C15.6735 16.4225 15.6697 16.9923 15.3159 17.3415L13.7002 18.9359C11.2701 21.334 7.36388 21.334 4.93374 18.9359C2.45763 16.4924 2.45763 12.496 4.93375 10.0524L6.44866 8.55748C6.80246 8.20834 7.37229 8.21212 7.72143 8.56591ZM14.8771 9.00725C15.2262 9.36105 15.2225 9.93088 14.8687 10.28L10.3964 14.6934C10.0426 15.0426 9.47274 15.0388 9.1236 14.685C8.77447 14.3312 8.77824 13.7614 9.13204 13.4122L13.6043 8.99882C13.9581 8.64968 14.528 8.65346 14.8771 9.00725Z" fill="white"/>
</svg>