<svg width="24" height="24" viewBox="0 0 24 24" fill="none" xmlns="http://www.w3.org/2000/svg">
<path fill-rule="evenodd" clip-rule="evenodd" d="M12 24C18.6274 24 24 18.6274 24 12C24 5.37258 18.6274 0 12 0C5.37258 0 0 5.37258 0 12C0 18.6274 5.37258 24 12 24Z" fill="#007AFF"/>
<path d="M16.78 6.90201C17.2484 7.19472 17.3907 7.81167 17.098 8.28001L11.473 17.28C11.3022 17.5533 11.0102 17.7275 10.6886 17.748C10.3669 17.7685 10.0551 17.6327 9.85107 17.3833L6.47607 13.2582C6.12635 12.8308 6.18935 12.2008 6.61679 11.8511C7.04424 11.5013 7.67426 11.5643 8.02399 11.9918L10.516 15.0376L15.402 7.22001C15.6947 6.75168 16.3117 6.6093 16.78 6.90201Z" fill="white"/>
</svg>