<svg width="20" height="24" viewBox="0 0 20 24" fill="none" xmlns="http://www.w3.org/2000/svg">
<path fill-rule="evenodd" clip-rule="evenodd" d="M10.3582 1.90001C9.89062 1.90001 9.51158 2.27905 9.51158 2.74663V3.27099H11.2048V2.74663C11.2048 2.27905 10.8258 1.90001 10.3582 1.90001ZM13.0048 3.27099V2.74663C13.0048 1.28494 11.8199 0.100006 10.3582 0.100006C8.89651 0.100006 7.71158 1.28494 7.71158 2.74663V3.27099H5.59026C2.90331 3.27099 0.725098 5.44919 0.725098 8.13615V18.7032C0.725098 21.3902 2.90331 23.5684 5.59026 23.5684H14.6271C17.3141 23.5684 19.4923 21.3902 19.4923 18.7032V8.13615C19.4923 5.4492 17.3141 3.27099 14.6271 3.27099H13.0048ZM5.59026 5.07099C3.89742 5.07099 2.5251 6.44331 2.5251 8.13615V18.7032C2.5251 20.3961 3.89742 21.7684 5.59026 21.7684H14.6271C16.32 21.7684 17.6923 20.3961 17.6923 18.7032V8.13615C17.6923 6.44331 16.3199 5.07099 14.6271 5.07099H5.59026ZM5.21641 8.92747C5.21641 8.43041 5.61935 8.02747 6.11641 8.02747H14.101C14.598 8.02747 15.001 8.43041 15.001 8.92747C15.001 9.42452 14.598 9.82747 14.101 9.82747H6.11641C5.61935 9.82747 5.21641 9.42452 5.21641 8.92747ZM5.21641 12.6269C5.21641 12.1299 5.61935 11.7269 6.11641 11.7269H14.101C14.598 11.7269 15.001 12.1299 15.001 12.6269C15.001 13.124 14.598 13.5269 14.101 13.5269H6.11641C5.61935 13.5269 5.21641 13.124 5.21641 12.6269ZM6.71351 16.3264C6.71351 15.8294 7.11646 15.4264 7.61351 15.4264H12.6039C13.1009 15.4264 13.5039 15.8294 13.5039 16.3264C13.5039 16.8235 13.1009 17.2264 12.6039 17.2264H7.61351C7.11646 17.2264 6.71351 16.8235 6.71351 16.3264Z" fill="#A2ACB0"/>
</svg>
