<svg width="25" height="25" viewBox="0 0 25 25" fill="none" xmlns="http://www.w3.org/2000/svg">
<path fill-rule="evenodd" clip-rule="evenodd" d="M12.4996 4.70578C11.638 3.92763 10.4934 3.30944 9.23925 3.07908C7.69182 2.79486 5.97824 3.10541 4.49255 4.41745C3.49505 5.29836 2.87905 6.67557 2.67534 8.15094C2.46967 9.64057 2.66989 11.3156 3.40243 12.8681C3.93516 13.9972 5.1936 15.4031 6.48351 16.6828C7.80643 17.9953 9.27847 19.2854 10.3548 20.1966C11.5975 21.2486 13.4017 21.2486 14.6444 20.1966C15.7207 19.2854 17.1928 17.9953 18.5157 16.6828C19.8056 15.4031 21.064 13.9972 21.5968 12.8681C22.3293 11.3156 22.5295 9.64059 22.3238 8.15095C22.1201 6.67558 21.5041 5.29837 20.5066 4.41746C19.021 3.10542 17.3074 2.79487 15.7599 3.07909C14.5058 3.30944 13.3612 3.92763 12.4996 4.70578ZM8.91407 4.84947C7.85457 4.65486 6.71509 4.85611 5.68404 5.76665C5.09488 6.28695 4.62098 7.21977 4.45843 8.39713C4.29784 9.56021 4.45498 10.8806 5.03033 12.1C5.41006 12.9049 6.4434 14.1075 7.75124 15.405C9.02606 16.6697 10.4577 17.9254 11.5178 18.8227C12.0893 19.3065 12.9099 19.3065 13.4814 18.8227C14.5415 17.9254 15.9731 16.6697 17.248 15.405C18.5558 14.1075 19.5891 12.9049 19.9689 12.1C20.5442 10.8806 20.7014 9.56022 20.5408 8.39714C20.3782 7.21979 19.9043 6.28696 19.3151 5.76666C18.2841 4.85613 17.1446 4.65487 16.0851 4.84947C14.995 5.0497 13.9908 5.67327 13.348 6.40318C12.8986 6.91358 12.1006 6.91358 11.6512 6.40318C11.0084 5.67327 10.0042 5.0497 8.91407 4.84947Z" fill="#007AFF"/>
</svg>
