<svg width="32" height="32" viewBox="0 0 32 32" fill="none" xmlns="http://www.w3.org/2000/svg">
<g clip-path="url(#clip0_6848_10733)">
<rect opacity="0.03" x="-17" y="-13" width="65" height="58" fill="#007AFF"/>
<path d="M16.0605 24.5815C14.8874 24.5815 13.7834 24.3574 12.7485 23.9092C11.7137 23.4665 10.8006 22.8494 10.0093 22.0581C9.22347 21.2668 8.60645 20.3537 8.1582 19.3188C7.70996 18.284 7.48584 17.18 7.48584 16.0068C7.48584 14.8337 7.70996 13.7297 8.1582 12.6948C8.60645 11.66 9.22347 10.7497 10.0093 9.96387C10.8006 9.17253 11.7109 8.55273 12.7402 8.10449C13.7751 7.65625 14.8791 7.43213 16.0522 7.43213C17.231 7.43213 18.3377 7.65625 19.3726 8.10449C20.4074 8.55273 21.3205 9.17253 22.1118 9.96387C22.9032 10.7497 23.5229 11.66 23.9712 12.6948C24.4194 13.7297 24.6436 14.8337 24.6436 16.0068C24.6436 17.18 24.4194 18.284 23.9712 19.3188C23.5229 20.3537 22.9032 21.2668 22.1118 22.0581C21.3205 22.8494 20.4074 23.4665 19.3726 23.9092C18.3377 24.3574 17.2337 24.5815 16.0605 24.5815ZM16.0605 22.8882C17.0179 22.8882 17.9116 22.7111 18.7417 22.3569C19.5718 22.0028 20.3022 21.5103 20.9331 20.8794C21.564 20.2485 22.0565 19.5181 22.4106 18.688C22.7648 17.8579 22.9419 16.9642 22.9419 16.0068C22.9419 15.055 22.7648 14.1641 22.4106 13.334C22.0565 12.4984 21.564 11.7651 20.9331 11.1343C20.3022 10.5034 19.569 10.0109 18.7334 9.65674C17.9033 9.30257 17.0096 9.12549 16.0522 9.12549C15.1004 9.12549 14.2067 9.30257 13.3711 9.65674C12.541 10.0109 11.8133 10.5034 11.188 11.1343C10.5627 11.7651 10.0729 12.4984 9.71875 13.334C9.36458 14.1641 9.1875 15.055 9.1875 16.0068C9.1875 16.9642 9.36458 17.8579 9.71875 18.688C10.0729 19.5181 10.5627 20.2485 11.188 20.8794C11.8188 21.5103 12.5493 22.0028 13.3794 22.3569C14.215 22.7111 15.1087 22.8882 16.0605 22.8882ZM15.8779 17.6587C15.3522 17.6587 15.0894 17.4235 15.0894 16.9531C15.0894 16.9365 15.0894 16.9199 15.0894 16.9033C15.0894 16.8867 15.0894 16.8729 15.0894 16.8618C15.0894 16.48 15.1834 16.1701 15.3716 15.9321C15.5653 15.6942 15.8115 15.4728 16.1104 15.2681C16.4645 15.0246 16.7274 14.8171 16.8989 14.6455C17.076 14.474 17.1646 14.2581 17.1646 13.998C17.1646 13.7158 17.0594 13.4862 16.8491 13.3091C16.6444 13.1265 16.3732 13.0352 16.0356 13.0352C15.8696 13.0352 15.7147 13.0628 15.5708 13.1182C15.4325 13.1735 15.3024 13.2537 15.1807 13.3589C15.0645 13.4585 14.9593 13.583 14.8652 13.7324L14.7324 13.9067C14.6549 14.0119 14.5609 14.0949 14.4502 14.1558C14.3451 14.2166 14.2178 14.2471 14.0684 14.2471C13.8968 14.2471 13.7446 14.189 13.6118 14.0728C13.479 13.9565 13.4126 13.7988 13.4126 13.5996C13.4126 13.5221 13.4181 13.4502 13.4292 13.3838C13.4458 13.3118 13.4679 13.2399 13.4956 13.168C13.6229 12.7806 13.9162 12.4458 14.3755 12.1636C14.8403 11.8813 15.4297 11.7402 16.1436 11.7402C16.6305 11.7402 17.0788 11.826 17.4883 11.9976C17.9033 12.1691 18.2354 12.4154 18.4844 12.7363C18.7334 13.0573 18.8579 13.4474 18.8579 13.9067C18.8579 14.3937 18.7334 14.7783 18.4844 15.0605C18.2409 15.3428 17.9172 15.6195 17.5132 15.8906C17.2365 16.0677 17.0262 16.2365 16.8823 16.397C16.7384 16.5575 16.661 16.7456 16.6499 16.9614C16.6499 16.9725 16.6499 16.9891 16.6499 17.0112C16.6499 17.0278 16.6471 17.0444 16.6416 17.061C16.6305 17.2271 16.5558 17.3682 16.4175 17.4844C16.2847 17.6006 16.1048 17.6587 15.8779 17.6587ZM15.8613 20.207C15.5957 20.207 15.366 20.1213 15.1724 19.9497C14.9842 19.7726 14.8901 19.554 14.8901 19.2939C14.8901 19.0339 14.9842 18.818 15.1724 18.6465C15.3605 18.4694 15.5902 18.3809 15.8613 18.3809C16.1325 18.3809 16.3621 18.4666 16.5503 18.6382C16.7384 18.8097 16.8325 19.0283 16.8325 19.2939C16.8325 19.5596 16.7384 19.7782 16.5503 19.9497C16.3621 20.1213 16.1325 20.207 15.8613 20.207Z" fill="#007AFF"/>
<g opacity="0.2" filter="url(#filter0_f_6848_10733)">
<ellipse cx="30.5" cy="30" rx="23.5" ry="23" fill="#007AFF"/>
</g>
</g>
<defs>
<filter id="filter0_f_6848_10733" x="-13" y="-13" width="87" height="86" filterUnits="userSpaceOnUse" color-interpolation-filters="sRGB">
<feFlood flood-opacity="0" result="BackgroundImageFix"/>
<feBlend mode="normal" in="SourceGraphic" in2="BackgroundImageFix" result="shape"/>
<feGaussianBlur stdDeviation="10" result="effect1_foregroundBlur_6848_10733"/>
</filter>
<clipPath id="clip0_6848_10733">
<rect width="32" height="32" rx="16" fill="white"/>
</clipPath>
</defs>
</svg>
