<svg width="18" height="19" viewBox="0 0 18 19" fill="none" xmlns="http://www.w3.org/2000/svg">
<path fill-rule="evenodd" clip-rule="evenodd" d="M9.5314 1.91379C9.26565 1.8467 8.98739 1.8467 8.72163 1.91379C8.46033 1.97976 8.1938 2.15116 7.27962 2.80135L3.65148 5.38179C2.97841 5.8605 2.79443 6.0019 2.66611 6.16494C2.53578 6.33052 2.4383 6.51949 2.37889 6.72167C2.32041 6.92073 2.31181 7.15261 2.31181 7.97855V13.2148C2.31181 13.9449 2.31251 14.4383 2.34362 14.8191C2.37387 15.1893 2.42833 15.3731 2.4921 15.4983C2.65068 15.8095 2.90373 16.0625 3.21497 16.2211C3.34012 16.2849 3.52389 16.3393 3.89413 16.3696C4.27488 16.4007 4.76831 16.4014 5.49837 16.4014H12.7547C13.4847 16.4014 13.9782 16.4007 14.3589 16.3696C14.7291 16.3393 14.9129 16.2849 15.0381 16.2211C15.3493 16.0625 15.6024 15.8095 15.7609 15.4983C15.8247 15.3731 15.8792 15.1893 15.9094 14.8191C15.9405 14.4383 15.9412 13.9449 15.9412 13.2149V7.97855C15.9412 7.15261 15.9326 6.92073 15.8741 6.72167C15.8147 6.51949 15.7173 6.33052 15.5869 6.16494C15.4586 6.0019 15.2746 5.8605 14.6016 5.38179L10.9734 2.80135C10.0592 2.15116 9.79271 1.97976 9.5314 1.91379ZM8.28103 0.168552C8.83598 0.0284514 9.41705 0.0284514 9.972 0.168552C10.6041 0.328127 11.1627 0.726152 11.891 1.24504C11.9323 1.27448 11.9742 1.30431 12.0167 1.33451L15.6448 3.91496C15.6755 3.9368 15.7058 3.95834 15.7358 3.9796C16.2764 4.36359 16.6923 4.65898 17.0014 5.05168C17.2735 5.39746 17.4771 5.79206 17.6011 6.21425C17.742 6.69373 17.7417 7.20385 17.7413 7.86696C17.7412 7.90368 17.7412 7.94087 17.7412 7.97855V13.2517C17.7412 13.9356 17.7412 14.5029 17.7034 14.9657C17.6641 15.4472 17.5794 15.8942 17.3647 16.3154C17.0336 16.9654 16.5052 17.4938 15.8553 17.8249C15.4341 18.0395 14.987 18.1243 14.5055 18.1636C14.0427 18.2014 13.4754 18.2014 12.7915 18.2014H5.4615C4.77764 18.2014 4.21031 18.2014 3.74755 18.1636C3.266 18.1243 2.81898 18.0395 2.39778 17.8249C1.74785 17.4938 1.21944 16.9654 0.888285 16.3154C0.673675 15.8942 0.588942 15.4472 0.549598 14.9657C0.511789 14.5029 0.511799 13.9356 0.511811 13.2517L0.511811 7.97855C0.511811 7.94087 0.511787 7.90368 0.511764 7.86695C0.511342 7.20384 0.511018 6.69373 0.651894 6.21425C0.77594 5.79206 0.979513 5.39746 1.25166 5.05168C1.56074 4.65898 1.97663 4.36359 2.51725 3.9796C2.54719 3.95834 2.57751 3.9368 2.60822 3.91496L6.23637 1.33451C6.27883 1.30431 6.3207 1.27448 6.36202 1.24504C7.0903 0.726153 7.64894 0.328127 8.28103 0.168552ZM9.12652 5.65616C9.62358 5.65616 10.0265 6.05911 10.0265 6.55616V9.0855H12.5301C13.0271 9.0855 13.4301 9.48844 13.4301 9.9855C13.4301 10.4826 13.0271 10.8855 12.5301 10.8855H10.0265V13.4148C10.0265 13.9119 9.62358 14.3148 9.12652 14.3148C8.62946 14.3148 8.22652 13.9119 8.22652 13.4148V10.8855H5.72297C5.22591 10.8855 4.82297 10.4826 4.82297 9.9855C4.82297 9.48844 5.22591 9.0855 5.72297 9.0855H8.22652V6.55616C8.22652 6.05911 8.62946 5.65616 9.12652 5.65616Z" fill="#A2ACB0"/>
</svg>
