<svg width="23" height="22" viewBox="0 0 23 22" fill="none" xmlns="http://www.w3.org/2000/svg">
<path fill-rule="evenodd" clip-rule="evenodd" d="M11.3321 0.100006H11.4181C13.207 0.1 14.6083 0.0999951 15.7311 0.197495C16.8743 0.296761 17.8138 0.502264 18.6541 0.964246C19.816 1.60298 20.7721 2.55912 21.4109 3.72097C21.8728 4.56131 22.0783 5.50085 22.1776 6.64402C22.2751 7.76685 22.2751 9.1681 22.2751 10.957V11.043C22.2751 12.8319 22.2751 14.2332 22.1776 15.356C22.0783 16.4992 21.8728 17.4387 21.4109 18.279C20.7721 19.4409 19.816 20.397 18.6541 21.0358C17.8138 21.4977 16.8743 21.7033 15.7311 21.8025C14.6083 21.9 13.207 21.9 11.4181 21.9H11.3321C9.54319 21.9 8.14194 21.9 7.01912 21.8025C5.87594 21.7033 4.9364 21.4977 4.09606 21.0358C2.93421 20.397 1.97807 19.4409 1.33934 18.279C0.877356 17.4387 0.671853 16.4992 0.572586 15.356C0.475087 14.2332 0.475092 12.8319 0.475098 11.043V10.957C0.475092 9.16811 0.475087 7.76685 0.572586 6.64402C0.671853 5.50085 0.877356 4.56131 1.33934 3.72097C1.97807 2.55912 2.93421 1.60298 4.09606 0.964246C4.9364 0.502264 5.87594 0.296761 7.01912 0.197495C8.14194 0.0999951 9.5432 0.1 11.3321 0.100006ZM7.17483 1.99075C6.15031 2.07971 5.49243 2.25066 4.96322 2.5416C4.10068 3.01578 3.39087 3.72559 2.91669 4.58813C2.62576 5.11734 2.4548 5.77522 2.36584 6.79974C2.27589 7.83561 2.2751 9.15886 2.2751 11C2.2751 12.8412 2.27589 14.1644 2.36584 15.2003C2.4548 16.2248 2.62576 16.8827 2.91669 17.4119C3.39087 18.2744 4.10068 18.9842 4.96322 19.4584C5.49243 19.7493 6.15031 19.9203 7.17483 20.0093C8.21071 20.0992 9.53395 20.1 11.3751 20.1C13.2162 20.1 14.5395 20.0992 15.5754 20.0093C16.5999 19.9203 17.2578 19.7493 17.787 19.4584C18.6495 18.9842 19.3593 18.2744 19.8335 17.4119C20.1244 16.8827 20.2954 16.2248 20.3844 15.2003C20.4743 14.1644 20.4751 12.8412 20.4751 11C20.4751 9.15886 20.4743 7.83561 20.3844 6.79974C20.2954 5.77522 20.1244 5.11733 19.8335 4.58813C19.3593 3.72559 18.6495 3.01578 17.787 2.5416C17.2578 2.25066 16.5999 2.07971 15.5754 1.99075C14.5395 1.9008 13.2162 1.90001 11.3751 1.90001C9.53395 1.90001 8.21071 1.9008 7.17483 1.99075ZM7.59088 4.01305H7.66401C8.06993 4.01302 8.43284 4.013 8.73325 4.04023C9.05502 4.06939 9.39229 4.13538 9.71495 4.32167C10.0651 4.52385 10.3559 4.81465 10.5581 5.16484C10.7444 5.4875 10.8104 5.82477 10.8396 6.14654C10.8668 6.44695 10.8668 6.80987 10.8667 7.21579V7.28891C10.8668 7.69483 10.8668 8.05775 10.8396 8.35816C10.8104 8.67993 10.7444 9.0172 10.5581 9.33986C10.3559 9.69005 10.0651 9.98085 9.71495 10.183C9.39229 10.3693 9.05502 10.4353 8.73325 10.4645C8.43284 10.4917 8.06992 10.4917 7.664 10.4917H7.59088C7.18496 10.4917 6.82204 10.4917 6.52164 10.4645C6.19987 10.4353 5.86259 10.3693 5.53993 10.183C5.18974 9.98085 4.89894 9.69005 4.69676 9.33986C4.51047 9.0172 4.44448 8.67993 4.41532 8.35816C4.38809 8.05775 4.38812 7.69484 4.38814 7.28892V7.21578C4.38812 6.80986 4.38809 6.44695 4.41532 6.14654C4.44448 5.82477 4.51047 5.4875 4.69676 5.16484C4.89894 4.81465 5.18974 4.52385 5.53993 4.32167C5.86259 4.13538 6.19986 4.06939 6.52164 4.04023C6.82204 4.013 7.18495 4.01302 7.59088 4.01305ZM6.43993 5.88052C6.43984 5.88057 6.43999 5.88048 6.43993 5.88052C6.36338 5.92472 6.29981 5.98829 6.25561 6.06484C6.25557 6.0649 6.25566 6.06475 6.25561 6.06484C6.2529 6.06943 6.22547 6.11592 6.20797 6.30902C6.189 6.51832 6.18814 6.79852 6.18814 7.25235C6.18814 7.70618 6.189 7.98638 6.20797 8.19568C6.22547 8.38878 6.25277 8.43505 6.25548 8.43964C6.29968 8.51619 6.36338 8.57999 6.43993 8.62418C6.44452 8.62689 6.491 8.65432 6.68411 8.67182C6.89341 8.69079 7.17361 8.69165 7.62744 8.69165C8.08127 8.69165 8.36148 8.69079 8.57078 8.67182C8.76389 8.65432 8.81014 8.62702 8.81473 8.62432C8.89128 8.58012 8.95508 8.51642 8.99928 8.43986C9.00198 8.43528 9.02941 8.3888 9.04691 8.19568C9.06588 7.98638 9.06674 7.70618 9.06674 7.25235C9.06674 6.79852 9.06588 6.51832 9.04691 6.30902C9.02941 6.11591 9.00212 6.06965 8.99941 6.06506C8.95521 5.98851 8.89151 5.92472 8.81495 5.88052C8.81036 5.87781 8.76388 5.85038 8.57077 5.83288C8.36148 5.81391 8.08127 5.81305 7.62744 5.81305C7.17361 5.81305 6.89341 5.81391 6.68411 5.83288C6.49101 5.85038 6.44452 5.87781 6.43993 5.88052ZM15.0862 4.01305H15.1593C15.5652 4.01302 15.9282 4.013 16.2286 4.04023C16.5503 4.06939 16.8876 4.13538 17.2103 4.32167C17.5605 4.52385 17.8513 4.81465 18.0534 5.16484C18.2397 5.4875 18.3057 5.82477 18.3349 6.14654C18.3621 6.44695 18.3621 6.80987 18.3621 7.21579V7.28891C18.3621 7.69483 18.3621 8.05775 18.3349 8.35816C18.3057 8.67993 18.2397 9.0172 18.0534 9.33986C17.8513 9.69005 17.5605 9.98085 17.2103 10.183C16.8876 10.3693 16.5503 10.4353 16.2286 10.4645C15.9282 10.4917 15.5652 10.4917 15.1593 10.4917H15.0862C14.6803 10.4917 14.3174 10.4917 14.0169 10.4645C13.6952 10.4353 13.3579 10.3693 13.0352 10.183C12.6851 9.98085 12.3943 9.69005 12.1921 9.33986C12.0058 9.0172 11.9398 8.67993 11.9106 8.35816C11.8834 8.05775 11.8834 7.69483 11.8835 7.28891V7.21579C11.8834 6.80987 11.8834 6.44695 11.9106 6.14654C11.9398 5.82477 12.0058 5.4875 12.1921 5.16484C12.3943 4.81465 12.6851 4.52385 13.0352 4.32167C13.3579 4.13538 13.6952 4.06939 14.0169 4.04023C14.3174 4.013 14.6803 4.01302 15.0862 4.01305ZM13.9352 5.88052C13.8587 5.92472 13.7951 5.98829 13.7509 6.06484C13.7482 6.06943 13.7208 6.11591 13.7033 6.30902C13.6843 6.51832 13.6835 6.79852 13.6835 7.25235C13.6835 7.70618 13.6843 7.98638 13.7033 8.19568C13.7208 8.38879 13.7481 8.43505 13.7508 8.43964C13.795 8.51619 13.8587 8.57999 13.9352 8.62418C13.9398 8.62689 13.9863 8.65432 14.1794 8.67182C14.3887 8.69079 14.6689 8.69165 15.1228 8.69165C15.5766 8.69165 15.8568 8.69079 16.0661 8.67182C16.2592 8.65432 16.3055 8.62702 16.31 8.62432C16.3866 8.58012 16.4504 8.51642 16.4946 8.43986C16.4973 8.43527 16.5247 8.38879 16.5422 8.19568C16.5612 7.98638 16.5621 7.70618 16.5621 7.25235C16.5621 6.79852 16.5612 6.51832 16.5422 6.30902C16.5247 6.11592 16.4974 6.06966 16.4947 6.06506C16.4505 5.98851 16.3868 5.92471 16.3103 5.88052C16.3057 5.87781 16.2592 5.85038 16.0661 5.83288C15.8568 5.81391 15.5766 5.81305 15.1228 5.81305C14.6689 5.81305 14.3887 5.81391 14.1794 5.83288C13.9863 5.85038 13.9398 5.87781 13.9352 5.88052ZM7.59089 11.5084H7.664C8.06992 11.5083 8.43284 11.5083 8.73325 11.5355C9.05502 11.5647 9.39229 11.6307 9.71495 11.817C10.0651 12.0192 10.3559 12.31 10.5581 12.6602C10.7444 12.9828 10.8104 13.3201 10.8396 13.6419C10.8668 13.9423 10.8668 14.3052 10.8667 14.7111V14.7842C10.8668 15.1901 10.8668 15.5531 10.8396 15.8535C10.8104 16.1752 10.7444 16.5125 10.5581 16.8352C10.3559 17.1854 10.0651 17.4762 9.71495 17.6783C9.39229 17.8646 9.05502 17.9306 8.73325 17.9598C8.43284 17.987 8.06992 17.987 7.664 17.987H7.59089C7.18496 17.987 6.82204 17.987 6.52164 17.9598C6.19986 17.9306 5.86259 17.8646 5.53993 17.6783C5.18974 17.4762 4.89894 17.1854 4.69676 16.8352C4.51047 16.5125 4.44448 16.1752 4.41532 15.8535C4.38809 15.5531 4.38812 15.1901 4.38814 14.7842V14.7111C4.38812 14.3052 4.38809 13.9423 4.41532 13.6419C4.44448 13.3201 4.51047 12.9828 4.69676 12.6602C4.89894 12.31 5.18974 12.0192 5.53993 11.817C5.86259 11.6307 6.19987 11.5647 6.52164 11.5355C6.82204 11.5083 7.18496 11.5083 7.59089 11.5084ZM6.43993 13.3758C6.36338 13.42 6.29981 13.4836 6.25561 13.5602C6.2529 13.5647 6.22547 13.6112 6.20797 13.8043C6.189 14.0136 6.18814 14.2938 6.18814 14.7477C6.18814 15.2015 6.189 15.4817 6.20797 15.691C6.22547 15.8841 6.25277 15.9304 6.25548 15.9349C6.29967 16.0115 6.36338 16.0753 6.43993 16.1195C6.44452 16.1222 6.49101 16.1496 6.68411 16.1671C6.89341 16.1861 7.17361 16.187 7.62744 16.187C8.08127 16.187 8.36148 16.1861 8.57077 16.1671C8.76388 16.1496 8.81014 16.1223 8.81473 16.1196C8.89128 16.0754 8.95508 16.0117 8.99928 15.9352C9.00198 15.9306 9.02941 15.8841 9.04691 15.691C9.06588 15.4817 9.06674 15.2015 9.06674 14.7477C9.06674 14.2938 9.06588 14.0136 9.04691 13.8043C9.02941 13.6112 9.00212 13.565 8.99941 13.5604C8.95521 13.4838 8.89151 13.42 8.81495 13.3758C8.81036 13.3731 8.76388 13.3457 8.57078 13.3282C8.36148 13.3092 8.08127 13.3084 7.62744 13.3084C7.17361 13.3084 6.89341 13.3092 6.68411 13.3282C6.491 13.3457 6.44452 13.3731 6.43993 13.3758ZM15.0862 11.5084H15.1593C15.5652 11.5083 15.9282 11.5083 16.2286 11.5355C16.5503 11.5647 16.8876 11.6307 17.2103 11.817C17.5605 12.0192 17.8513 12.31 18.0534 12.6602C18.2397 12.9828 18.3057 13.3201 18.3349 13.6419C18.3621 13.9423 18.3621 14.3052 18.3621 14.7111V14.7842C18.3621 15.1901 18.3621 15.5531 18.3349 15.8535C18.3057 16.1752 18.2397 16.5125 18.0534 16.8352C17.8512 17.1854 17.5605 17.4762 17.2103 17.6783C16.8876 17.8646 16.5503 17.9306 16.2286 17.9598C15.9282 17.987 15.5652 17.987 15.1593 17.987H15.0862C14.6803 17.987 14.3174 17.987 14.0169 17.9598C13.6952 17.9306 13.3579 17.8646 13.0352 17.6783C12.6851 17.4762 12.3943 17.1854 12.1921 16.8352C12.0058 16.5125 11.9398 16.1752 11.9106 15.8535C11.8834 15.5531 11.8834 15.1901 11.8835 14.7842V14.7111C11.8834 14.3052 11.8834 13.9423 11.9106 13.6419C11.9398 13.3201 12.0058 12.9828 12.1921 12.6602C12.3943 12.31 12.6851 12.0192 13.0352 11.817C13.3579 11.6307 13.6952 11.5647 14.0169 11.5355C14.3174 11.5083 14.6803 11.5083 15.0862 11.5084ZM13.9352 13.3758C13.8587 13.42 13.7951 13.4836 13.7509 13.5602C13.7482 13.5647 13.7208 13.6112 13.7033 13.8043C13.6843 14.0136 13.6835 14.2938 13.6835 14.7477C13.6835 15.2015 13.6843 15.4817 13.7033 15.691C13.7208 15.8841 13.7481 15.9304 13.7508 15.9349C13.795 16.0115 13.8587 16.0753 13.9352 16.1195C13.9398 16.1222 13.9863 16.1496 14.1794 16.1671C14.3887 16.1861 14.6689 16.187 15.1228 16.187C15.5766 16.187 15.8568 16.1861 16.0661 16.1671C16.2592 16.1496 16.3055 16.1223 16.31 16.1196C16.3866 16.0754 16.4504 16.0117 16.4946 15.9352C16.4973 15.9306 16.5247 15.8841 16.5422 15.691C16.5612 15.4817 16.5621 15.2015 16.5621 14.7477C16.5621 14.2938 16.5612 14.0136 16.5422 13.8043C16.5247 13.6112 16.4974 13.565 16.4947 13.5604C16.4505 13.4838 16.3868 13.42 16.3103 13.3758C16.3057 13.3731 16.2592 13.3457 16.0661 13.3282C15.8568 13.3092 15.5766 13.3084 15.1228 13.3084C14.6689 13.3084 14.3887 13.3092 14.1794 13.3282C13.9863 13.3457 13.9398 13.3731 13.9352 13.3758Z" fill="#A2ACB0"/>
</svg>
