<svg width="65" height="60" viewBox="0 0 65 60" fill="none" xmlns="http://www.w3.org/2000/svg">
<g clip-path="url(#clip0_6848_10714)">
<rect width="65" height="60" rx="12" fill="#4378FF" fill-opacity="0.1"/>
<path fill-rule="evenodd" clip-rule="evenodd" d="M32.4996 10.7058C31.638 9.92763 30.4934 9.30944 29.2392 9.07908C27.6918 8.79486 25.9782 9.10541 24.4925 10.4175C23.495 11.2984 22.879 12.6756 22.6753 14.1509C22.4697 15.6406 22.6699 17.3156 23.4024 18.8681C23.9352 19.9972 25.1936 21.4031 26.4835 22.6828C27.8064 23.9953 29.2785 25.2854 30.3548 26.1966C31.5975 27.2486 33.4017 27.2486 34.6444 26.1966C35.7207 25.2854 37.1928 23.9953 38.5157 22.6828C39.8056 21.4031 41.064 19.9972 41.5968 18.8681C42.3293 17.3156 42.5295 15.6406 42.3238 14.1509C42.1201 12.6756 41.5041 11.2984 40.5066 10.4175C39.021 9.10542 37.3074 8.79487 35.7599 9.07909C34.5058 9.30944 33.3612 9.92763 32.4996 10.7058ZM28.9141 10.8495C27.8546 10.6549 26.7151 10.8561 25.684 11.7666C25.0949 12.2869 24.621 13.2198 24.4584 14.3971C24.2978 15.5602 24.455 16.8806 25.0303 18.1C25.4101 18.9049 26.4434 20.1075 27.7512 21.405C29.0261 22.6697 30.4577 23.9254 31.5178 24.8227C32.0893 25.3065 32.9099 25.3065 33.4814 24.8227C34.5415 23.9254 35.9731 22.6697 37.248 21.405C38.5558 20.1075 39.5891 18.9049 39.9689 18.1C40.5442 16.8806 40.7014 15.5602 40.5408 14.3971C40.3782 13.2198 39.9043 12.287 39.3151 11.7667C38.2841 10.8561 37.1446 10.6549 36.0851 10.8495C34.995 11.0497 33.9908 11.6733 33.348 12.4032C32.8986 12.9136 32.1006 12.9136 31.6512 12.4032C31.0084 11.6733 30.0042 11.0497 28.9141 10.8495Z" fill="#007AFF"/>
<path d="M8.94297 38.2578H10.4537L12.9801 45.2148L15.5001 38.2578H17.0172L13.5831 47.5H12.3707L8.94297 38.2578ZM8.18125 38.2578H9.66025L9.92686 44.6499V47.5H8.18125V38.2578ZM16.2936 38.2578H17.7789V47.5H16.0333V44.6499L16.2936 38.2578ZM21.3066 40.6318V47.5H19.6245V40.6318H21.3066ZM19.5103 38.8354C19.5103 38.5858 19.5949 38.3784 19.7642 38.2134C19.9377 38.0483 20.1704 37.9658 20.4624 37.9658C20.7544 37.9658 20.985 38.0483 21.1543 38.2134C21.3278 38.3784 21.4146 38.5858 21.4146 38.8354C21.4146 39.0809 21.3278 39.2861 21.1543 39.4512C20.985 39.6162 20.7544 39.6987 20.4624 39.6987C20.1704 39.6987 19.9377 39.6162 19.7642 39.4512C19.5949 39.2861 19.5103 39.0809 19.5103 38.8354ZM24.6503 42.0981V47.5H22.9745V40.6318H24.5487L24.6503 42.0981ZM24.3837 43.8184H23.8886C23.8928 43.319 23.9605 42.8662 24.0917 42.46C24.2229 42.0537 24.407 41.7046 24.6439 41.4126C24.8852 41.1206 25.1708 40.8963 25.5009 40.7397C25.831 40.5832 26.1991 40.5049 26.6054 40.5049C26.9354 40.5049 27.2338 40.5514 27.5004 40.6445C27.767 40.7376 27.9955 40.8857 28.1859 41.0889C28.3806 41.292 28.5287 41.5586 28.6303 41.8887C28.7361 42.2145 28.789 42.6165 28.789 43.0947V47.5H27.1005V43.082C27.1005 42.7689 27.0539 42.5213 26.9608 42.3394C26.872 42.1574 26.7408 42.0283 26.5673 41.9521C26.398 41.876 26.1885 41.8379 25.9389 41.8379C25.6807 41.8379 25.4543 41.8908 25.2597 41.9966C25.0692 42.0981 24.9084 42.2399 24.7772 42.4219C24.6503 42.6038 24.553 42.8133 24.4853 43.0503C24.4175 43.2873 24.3837 43.5433 24.3837 43.8184ZM32.1453 40.6318V47.5H30.4632V40.6318H32.1453ZM30.3489 38.8354C30.3489 38.5858 30.4336 38.3784 30.6028 38.2134C30.7763 38.0483 31.0091 37.9658 31.3011 37.9658C31.5931 37.9658 31.8237 38.0483 31.993 38.2134C32.1665 38.3784 32.2532 38.5858 32.2532 38.8354C32.2532 39.0809 32.1665 39.2861 31.993 39.4512C31.8237 39.6162 31.5931 39.6987 31.3011 39.6987C31.0091 39.6987 30.7763 39.6162 30.6028 39.4512C30.4336 39.2861 30.3489 39.0809 30.3489 38.8354ZM40.9591 38.2578V47.5H39.2198V38.2578H40.9591ZM43.8282 38.2578V39.6353H36.3824V38.2578H43.8282ZM47.8447 46.04V42.8726C47.8447 42.6398 47.8045 42.4388 47.7241 42.2695C47.6437 42.1003 47.521 41.9691 47.356 41.876C47.1909 41.7829 46.9814 41.7363 46.7275 41.7363C46.5033 41.7363 46.3065 41.7744 46.1372 41.8506C45.9722 41.9268 45.8452 42.0347 45.7563 42.1743C45.6675 42.3097 45.623 42.4663 45.623 42.644H43.9409C43.9409 42.3605 44.0086 42.0918 44.144 41.8379C44.2795 41.5798 44.472 41.3512 44.7217 41.1523C44.9756 40.9492 45.2782 40.7905 45.6294 40.6763C45.9849 40.562 46.3826 40.5049 46.8228 40.5049C47.3433 40.5049 47.8066 40.5938 48.2129 40.7715C48.6234 40.945 48.945 41.2074 49.1777 41.5586C49.4147 41.9098 49.5332 42.3521 49.5332 42.8853V45.8813C49.5332 46.2241 49.5544 46.5182 49.5967 46.7637C49.6432 47.0049 49.7109 47.2144 49.7998 47.3921V47.5H48.0923C48.0119 47.3265 47.9505 47.1064 47.9082 46.8398C47.8659 46.569 47.8447 46.3024 47.8447 46.04ZM48.0796 43.3169L48.0923 44.3135H47.0322C46.7699 44.3135 46.5392 44.341 46.3403 44.396C46.1414 44.4468 45.9785 44.5229 45.8516 44.6245C45.7246 44.7218 45.6294 44.8403 45.5659 44.98C45.5024 45.1154 45.4707 45.2699 45.4707 45.4434C45.4707 45.6126 45.5088 45.765 45.585 45.9004C45.6654 46.0358 45.7796 46.1437 45.9277 46.2241C46.0801 46.3003 46.2578 46.3384 46.4609 46.3384C46.7572 46.3384 47.0153 46.2791 47.2354 46.1606C47.4554 46.0379 47.6268 45.8898 47.7495 45.7163C47.8722 45.5428 47.9378 45.3778 47.9463 45.2212L48.4287 45.9448C48.3695 46.1183 48.2806 46.3024 48.1621 46.4971C48.0436 46.6917 47.8913 46.8737 47.7051 47.043C47.5189 47.2122 47.2946 47.3519 47.0322 47.4619C46.7699 47.5719 46.4652 47.627 46.1182 47.627C45.6738 47.627 45.276 47.5381 44.9248 47.3604C44.5736 47.1826 44.2964 46.9393 44.0933 46.6304C43.8901 46.3215 43.7886 45.9702 43.7886 45.5767C43.7886 45.2127 43.8563 44.8911 43.9917 44.6118C44.1271 44.3325 44.3281 44.0977 44.5947 43.9072C44.8613 43.7126 45.1914 43.5666 45.585 43.4692C45.9827 43.3677 46.4377 43.3169 46.9497 43.3169H48.0796ZM52.8197 41.9521V50.1406H51.1376V40.6318H52.6928L52.8197 41.9521ZM57.2313 43.9961V44.1294C57.2313 44.6287 57.1721 45.0921 57.0536 45.5195C56.9394 45.9427 56.7701 46.313 56.5458 46.6304C56.3215 46.9435 56.0422 47.189 55.7079 47.3667C55.3778 47.5402 54.997 47.627 54.5653 47.627C54.1422 47.627 53.774 47.5465 53.4608 47.3857C53.1477 47.2207 52.8832 46.988 52.6674 46.6875C52.4516 46.387 52.2781 46.0379 52.1469 45.6401C52.0199 45.2381 51.9247 44.8001 51.8612 44.3262V43.9009C51.9247 43.3973 52.0199 42.9403 52.1469 42.5298C52.2781 42.1151 52.4516 41.7575 52.6674 41.457C52.8832 41.1523 53.1456 40.9175 53.4545 40.7524C53.7676 40.5874 54.1337 40.5049 54.5526 40.5049C54.9885 40.5049 55.3715 40.5874 55.7016 40.7524C56.0359 40.9175 56.3173 41.1545 56.5458 41.4634C56.7743 41.7723 56.9457 42.1405 57.06 42.5679C57.1742 42.9953 57.2313 43.4714 57.2313 43.9961ZM55.5492 44.1294V43.9961C55.5492 43.6914 55.5217 43.41 55.4667 43.1519C55.4117 42.8895 55.327 42.661 55.2128 42.4663C55.0985 42.2674 54.9504 42.113 54.7685 42.0029C54.5865 41.8929 54.3664 41.8379 54.1083 41.8379C53.8502 41.8379 53.628 41.8802 53.4418 41.9648C53.2556 42.0495 53.1033 42.1701 52.9848 42.3267C52.8663 42.4832 52.7732 42.6694 52.7055 42.8853C52.642 43.0968 52.5997 43.3317 52.5785 43.5898V44.6436C52.6166 44.9567 52.6907 45.2381 52.8007 45.4878C52.9107 45.7375 53.0715 45.9364 53.2831 46.0845C53.4989 46.2326 53.7782 46.3066 54.121 46.3066C54.3791 46.3066 54.5992 46.2495 54.7812 46.1353C54.9631 46.021 55.1112 45.8644 55.2255 45.6655C55.3397 45.4624 55.4223 45.2297 55.473 44.9673C55.5238 44.7049 55.5492 44.4256 55.5492 44.1294Z" fill="#007AFF"/>
<g opacity="0.2" filter="url(#filter0_f_6848_10714)">
<ellipse cx="47.5" cy="44" rx="23.5" ry="23" fill="#007AFF"/>
</g>
</g>
<defs>
<filter id="filter0_f_6848_10714" x="4" y="1" width="87" height="86" filterUnits="userSpaceOnUse" color-interpolation-filters="sRGB">
<feFlood flood-opacity="0" result="BackgroundImageFix"/>
<feBlend mode="normal" in="SourceGraphic" in2="BackgroundImageFix" result="shape"/>
<feGaussianBlur stdDeviation="10" result="effect1_foregroundBlur_6848_10714"/>
</filter>
<clipPath id="clip0_6848_10714">
<rect width="65" height="60" rx="12" fill="white"/>
</clipPath>
</defs>
</svg>
