<svg width="54" height="39" viewBox="0 0 54 39" fill="none" xmlns="http://www.w3.org/2000/svg">
<path d="M48.7297 8.6389C49.3036 9.28737 49.8832 9.97058 50.5142 10.6161C50.8751 10.9736 51.2673 11.3471 51.7163 11.5818C52.3315 11.9085 53.0246 11.8284 53.4135 11.252C53.6685 10.8708 53.7568 10.2621 53.6704 9.82004C53.5691 9.33064 53.2485 8.8659 52.9041 8.47681C50.8545 6.1108 48.8306 3.7259 46.6908 1.4259C45.508 0.135168 43.8983 0.206488 42.9056 1.63325C42.0139 2.92775 41.3034 4.3616 40.6593 5.80509C39.7133 7.91674 38.8928 10.0918 38.041 12.2511C37.9678 12.4213 38.0646 12.6614 38.082 12.9012C39.4015 13.7032 40.5226 13.1541 41.4245 12.1436C42.038 11.4416 42.4775 10.5561 42.9098 9.71474C43.3292 8.88282 43.6451 7.99065 43.9816 7.18058C44.7782 7.16068 44.6915 7.69059 44.7223 8.05672C45.0582 12.3777 43.7573 16.3817 41.9673 20.2582C41.6287 21.0114 41.0317 21.6819 40.4363 22.2735C33.7136 28.8692 25.7785 33.1075 16.4766 34.6155C12.4735 35.2546 8.70101 34.3449 5.07393 32.8234C4.42573 32.5597 3.93676 31.9461 3.34887 31.5217C2.78311 31.1004 2.16366 31.1461 1.59147 31.5263C0.919888 31.9599 0.529844 32.7509 0.782972 33.4206C1.00626 33.9955 1.30524 34.5928 1.75104 34.9853C2.35228 35.536 3.07506 36.0366 3.83961 36.3511C8.26829 38.2377 12.878 39.156 17.7375 38.2006C24.3644 36.9029 30.5873 34.5407 36.0704 30.4661C38.6362 28.5672 41.2078 26.703 43.3681 24.3043C44.6723 22.8437 45.6182 21.218 46.2001 19.3925C47.2109 16.2618 48.0759 13.1212 48.1289 9.81743C48.1444 9.51454 48.23 9.19921 48.312 8.90596C48.3357 8.83029 48.4794 8.78337 48.7297 8.6389Z" fill="#007AFF"/>
</svg>