<svg width="40" height="40" viewBox="0 0 40 40" fill="none" xmlns="http://www.w3.org/2000/svg">
<rect width="40" height="40" rx="10" fill="#4378FF" fill-opacity="0.1"/>
<path fill-rule="evenodd" clip-rule="evenodd" d="M20.1137 10.0977C20.5745 8.81871 22.2954 8.31844 23.339 9.3256L26.66 12.5308C27.2951 13.1437 27.5253 14.0629 27.2355 14.9022L26.8861 15.9137C26.8835 15.9214 26.8826 15.9261 26.8824 15.9282C26.8837 15.9313 26.889 15.9417 26.9037 15.954C26.9211 15.9685 26.9415 15.9772 26.9597 15.9799C26.9735 15.9819 26.9941 15.9821 27.0266 15.9664C27.7424 15.621 28.6093 15.7521 29.1858 16.3084L28.5608 16.956L29.1858 16.3084L29.5534 16.6632C30.5884 17.6621 30.5884 19.2954 29.5534 20.2944L23.968 25.6849C24.146 26.3112 23.9816 27.0118 23.4749 27.5009L22.4337 28.5058C21.5099 29.3973 20.025 29.3974 19.1012 28.5058L18.4962 27.9219C18.2338 27.6687 17.6387 27.6796 17.3204 28.1175C16.6292 29.0685 15.6869 30.0763 14.573 30.575C13.9995 30.8318 13.3541 30.9649 12.6735 30.8557C11.9894 30.7459 11.3499 30.4042 10.7712 29.8456C10.1937 29.2882 9.82996 28.6625 9.71248 27.9805C9.59534 27.3005 9.73927 26.6592 10.0095 26.0971C10.5314 25.0111 11.58 24.101 12.5595 23.4378C12.7653 23.2985 12.8886 23.0856 12.9191 22.8796C12.9483 22.6829 12.8935 22.5145 12.7645 22.39L12.1595 21.8062C11.2178 20.8973 11.2178 19.41 12.1595 18.5011L13.2008 17.4962C13.7063 17.0083 14.4225 16.8573 15.0585 17.0432L17.3657 14.8164C18.6021 13.6231 19.5435 11.6802 20.1137 10.0977ZM16.5101 18.1438L22.8499 24.2625L28.3033 18.9992C28.6051 18.708 28.6051 18.2495 28.3033 17.9583L27.9358 17.6036C27.9239 17.5922 27.9054 17.5816 27.8799 17.5776C27.8544 17.5736 27.8296 17.5775 27.8089 17.5875C26.3837 18.2753 24.6141 16.9783 25.1847 15.3261L25.5341 14.3146C25.5911 14.1496 25.5506 13.9616 25.41 13.826L22.089 10.6208C22.0722 10.6046 22.0304 10.5789 21.9476 10.5998C21.861 10.6216 21.8195 10.6734 21.8071 10.7078C21.2092 12.3674 20.154 14.6269 18.6158 16.1116L16.5101 18.1438ZM26.8823 15.9294C26.8823 15.9296 26.8823 15.9296 26.8823 15.9293L26.8823 15.9294ZM14.5199 18.7663C14.4877 18.7663 14.4648 18.7779 14.4508 18.7914L13.4095 19.7963C13.2011 19.9974 13.2011 20.3099 13.4095 20.511L14.0145 21.0949C15.2275 22.2656 14.7772 24.1101 13.5686 24.9283C12.6697 25.5369 11.9442 26.2269 11.6318 26.8769C11.4848 27.1827 11.4464 27.4432 11.4864 27.6749C11.5259 27.9047 11.6586 28.2005 12.0212 28.5505C12.3826 28.8993 12.698 29.0366 12.9586 29.0784C13.2227 29.1208 13.5117 29.078 13.8375 28.9321C14.5222 28.6256 15.2378 27.9212 15.8644 27.0592C16.7157 25.888 18.5684 25.49 19.7462 26.6267L20.3512 27.2106C20.5776 27.4291 20.9573 27.4291 21.1837 27.2106L22.2249 26.2057C22.2325 26.1984 22.2349 26.1933 22.2358 26.1912C22.2364 26.1898 22.2368 26.1883 22.2371 26.1869C22.2373 26.1857 22.2374 26.1845 22.2374 26.1833C22.2374 26.1807 22.2369 26.178 22.2358 26.1754C22.2349 26.1733 22.2325 26.1683 22.2249 26.1609L14.5891 18.7914C14.5751 18.7779 14.5521 18.7663 14.5199 18.7663Z" fill="black" fill-opacity="0.8"/>
</svg>
