<svg width="23" height="22" viewBox="0 0 23 22" fill="none" xmlns="http://www.w3.org/2000/svg">
<path fill-rule="evenodd" clip-rule="evenodd" d="M11.2493 22C17.3244 22 22.2493 17.0751 22.2493 11C22.2493 4.92487 17.3244 0 11.2493 0C5.17414 0 0.249268 4.92487 0.249268 11C0.249268 17.0751 5.17414 22 11.2493 22ZM12.1493 6C12.1493 5.50294 11.7463 5.1 11.2493 5.1C10.7522 5.1 10.3493 5.50294 10.3493 6V10.1H6.24927C5.75221 10.1 5.34927 10.5029 5.34927 11C5.34927 11.4971 5.75221 11.9 6.24927 11.9H10.3493V16C10.3493 16.4971 10.7522 16.9 11.2493 16.9C11.7463 16.9 12.1493 16.4971 12.1493 16V11.9H16.2493C16.7463 11.9 17.1493 11.4971 17.1493 11C17.1493 10.5029 16.7463 10.1 16.2493 10.1H12.1493V6Z" fill="white"/>
</svg>
