<svg width="27" height="21" viewBox="0 0 27 21" fill="none" xmlns="http://www.w3.org/2000/svg">
<path fill-rule="evenodd" clip-rule="evenodd" d="M17.4941 2.94653C15.5461 2.94653 14.0288 4.46052 14.0288 6.25332C14.0288 8.04612 15.5461 9.56011 17.4941 9.56011C19.4421 9.56011 20.9595 8.04612 20.9595 6.25332C20.9595 4.46052 19.4421 2.94653 17.4941 2.94653ZM12.0502 6.25332C12.0502 3.3008 14.5216 0.967957 17.4941 0.967957C20.4666 0.967957 22.938 3.3008 22.938 6.25332C22.938 9.20584 20.4666 11.5387 17.4941 11.5387C14.5216 11.5387 12.0502 9.20584 12.0502 6.25332ZM5.24384 5.26403C5.79021 5.26403 6.23313 5.70695 6.23313 6.25332V8.48609H8.58482C9.13119 8.48609 9.57411 8.92901 9.57411 9.47538C9.57411 10.0217 9.13119 10.4647 8.58482 10.4647H6.23313V12.6974C6.23313 13.2438 5.79021 13.6867 5.24384 13.6867C4.69747 13.6867 4.25456 13.2438 4.25456 12.6974V10.4647H1.90286C1.35649 10.4647 0.913574 10.0217 0.913574 9.47538C0.913574 8.92901 1.35649 8.48609 1.90286 8.48609H4.25456V6.25332C4.25456 5.70695 4.69747 5.26403 5.24384 5.26403ZM17.4941 15.2978C11.7331 15.2978 10.2558 18.5254 10.1257 19.7806C10.0693 20.324 9.58308 20.7189 9.03962 20.6626C8.49617 20.6062 8.10129 20.12 8.15764 19.5765C8.39871 17.2517 10.7822 13.3192 17.4941 13.3192C24.2061 13.3192 26.5895 17.2517 26.8306 19.5765C26.8869 20.12 26.492 20.6062 25.9486 20.6626C25.4051 20.7189 24.9189 20.324 24.8625 19.7806C24.7324 18.5254 23.2552 15.2978 17.4941 15.2978Z" fill="#A2ACB0"/>
</svg>
