<svg width="36" height="27" viewBox="0 0 36 27" fill="none" xmlns="http://www.w3.org/2000/svg">
<path fill-rule="evenodd" clip-rule="evenodd" d="M23.0264 2.71176C20.3212 2.71176 18.2139 4.78677 18.2139 7.24391C18.2139 9.70105 20.3212 11.7761 23.0264 11.7761C25.7317 11.7761 27.839 9.70105 27.839 7.24391C27.839 4.78677 25.7317 2.71176 23.0264 2.71176ZM15.4661 7.24391C15.4661 3.19731 18.8983 0 23.0264 0C27.1545 0 30.5868 3.19731 30.5868 7.24391C30.5868 11.2905 27.1545 14.4878 23.0264 14.4878C18.8983 14.4878 15.4661 11.2905 15.4661 7.24391ZM6.01372 5.88803C6.77249 5.88803 7.3876 6.49508 7.3876 7.24391V10.3041H10.6535C11.4123 10.3041 12.0274 10.9111 12.0274 11.6599C12.0274 12.4088 11.4123 13.0158 10.6535 13.0158H7.3876V16.076C7.3876 16.8248 6.77249 17.4318 6.01372 17.4318C5.25494 17.4318 4.63983 16.8248 4.63983 16.076V13.0158H1.37389C0.615109 13.0158 0 12.4088 0 11.6599C0 10.9111 0.615109 10.3041 1.37389 10.3041H4.63983V7.24391C4.63983 6.49508 5.25494 5.88803 6.01372 5.88803ZM23.0264 19.6399C15.0257 19.6399 12.9742 24.0635 12.7934 25.7839C12.7152 26.5287 12.0399 27.0699 11.2852 26.9927C10.5304 26.9154 9.98203 26.249 10.0603 25.5042C10.3951 22.3178 13.7051 16.9281 23.0264 16.9281C32.3477 16.9281 35.6578 22.3178 35.9926 25.5042C36.0708 26.249 35.5224 26.9154 34.7677 26.9927C34.013 27.0699 33.3377 26.5287 33.2594 25.7839C33.0787 24.0635 31.0272 19.6399 23.0264 19.6399Z" fill="#007AFF"/>
</svg>