<svg width="25" height="24" viewBox="0 0 25 24" fill="none" xmlns="http://www.w3.org/2000/svg">
<path fill-rule="evenodd" clip-rule="evenodd" d="M7.70968 2.48364H7.78874C8.42268 2.48363 8.95736 2.48361 9.39369 2.52264C9.85099 2.56354 10.2874 2.6528 10.6949 2.88498C11.1569 3.14825 11.5421 3.52776 11.8105 3.98654C12.0481 4.39263 12.1395 4.82793 12.1812 5.28222C12.2209 5.71441 12.2209 6.24344 12.2208 6.86791V6.94856C12.2209 7.57303 12.2209 8.10206 12.1812 8.53425C12.1395 8.98855 12.0481 9.42385 11.8105 9.82993C11.5421 10.2887 11.157 10.6682 10.6949 10.9315C10.2874 11.1637 9.85099 11.2529 9.39369 11.2938C8.95736 11.3329 8.42269 11.3328 7.78875 11.3328H7.70967C7.07574 11.3328 6.54106 11.3329 6.10473 11.2938C5.64743 11.2529 5.21106 11.1637 4.80354 10.9315C4.34147 10.6682 3.95629 10.2887 3.68787 9.82993C3.45029 9.42385 3.35897 8.98855 3.31725 8.53425C3.27756 8.10205 3.27757 7.57301 3.27759 6.94853V6.86794C3.27757 6.24346 3.27756 5.71442 3.31725 5.28222C3.35897 4.82793 3.45029 4.39263 3.68787 3.98654C3.95629 3.52776 4.34147 3.14825 4.80354 2.88498C5.21106 2.6528 5.64743 2.56354 6.10473 2.52264C6.54106 2.48361 7.07574 2.48363 7.70968 2.48364ZM6.26508 4.31548C5.93044 4.34541 5.78437 4.39781 5.69461 4.44895C5.50513 4.55691 5.34927 4.71132 5.24151 4.8955C5.19199 4.98015 5.13976 5.11963 5.10971 5.44684C5.07847 5.78689 5.07759 6.23263 5.07759 6.90824C5.07759 7.58385 5.07847 8.02958 5.10971 8.36963C5.13976 8.69685 5.19199 8.83632 5.24151 8.92097C5.34927 9.10515 5.50513 9.25957 5.69461 9.36752C5.78437 9.41866 5.93044 9.47106 6.26508 9.50099C6.61166 9.53199 7.06524 9.53283 7.74921 9.53283C8.43318 9.53283 8.88677 9.53199 9.23334 9.50099C9.56798 9.47106 9.71405 9.41866 9.80381 9.36752C9.99329 9.25957 10.1492 9.10515 10.2569 8.92097C10.3064 8.83632 10.3587 8.69684 10.3887 8.36963C10.4199 8.02958 10.4208 7.58385 10.4208 6.90824C10.4208 6.23263 10.4199 5.78689 10.3887 5.44684C10.3587 5.11963 10.3064 4.98015 10.2569 4.8955C10.1492 4.71132 9.99329 4.55691 9.80381 4.44895C9.71405 4.39781 9.56798 4.34541 9.23334 4.31548C8.88677 4.28448 8.43318 4.28364 7.74921 4.28364C7.06524 4.28364 6.61166 4.28448 6.26508 4.31548ZM17.7102 2.48364H17.7893C18.4232 2.48363 18.9579 2.48361 19.3942 2.52264C19.8515 2.56354 20.2879 2.6528 20.6954 2.88498C21.1575 3.14825 21.5427 3.52776 21.8111 3.98654C22.0487 4.39263 22.14 4.82792 22.1817 5.28222C22.2214 5.71442 22.2214 6.24347 22.2214 6.86795V6.94852C22.2214 7.57301 22.2214 8.10205 22.1817 8.53425C22.14 8.98855 22.0487 9.42385 21.8111 9.82993C21.5427 10.2887 21.1575 10.6682 20.6954 10.9315C20.2879 11.1637 19.8515 11.2529 19.3942 11.2938C18.9579 11.3329 18.4232 11.3328 17.7893 11.3328H17.7102C17.0763 11.3328 16.5416 11.3329 16.1053 11.2938C15.648 11.2529 15.2116 11.1637 14.8041 10.9315C14.342 10.6682 13.9568 10.2887 13.6884 9.82993C13.4508 9.42385 13.3595 8.98855 13.3178 8.53425C13.2781 8.10205 13.2781 7.573 13.2781 6.94852V6.86795C13.2781 6.24347 13.2781 5.71442 13.3178 5.28222C13.3595 4.82793 13.4508 4.39263 13.6884 3.98654C13.9568 3.52776 14.342 3.14825 14.8041 2.88498C15.2116 2.6528 15.648 2.56354 16.1053 2.52264C16.5416 2.48361 17.0763 2.48363 17.7102 2.48364ZM16.2656 4.31548C15.931 4.34541 15.7849 4.39781 15.6952 4.44895C15.5057 4.55691 15.3498 4.71132 15.2421 4.8955C15.1925 4.98015 15.1403 5.11963 15.1102 5.44684C15.079 5.78689 15.0781 6.23263 15.0781 6.90824C15.0781 7.58385 15.079 8.02958 15.1102 8.36963C15.1403 8.69684 15.1925 8.83632 15.2421 8.92097C15.3498 9.10515 15.5057 9.25957 15.6952 9.36752C15.7849 9.41866 15.931 9.47106 16.2656 9.50099C16.6122 9.53199 17.0658 9.53283 17.7498 9.53283C18.4337 9.53283 18.8873 9.53199 19.2339 9.50099C19.5685 9.47106 19.7146 9.41866 19.8044 9.36752C19.9938 9.25957 20.1497 9.10515 20.2575 8.92097C20.307 8.83632 20.3592 8.69684 20.3893 8.36963C20.4205 8.02958 20.4214 7.58385 20.4214 6.90824C20.4214 6.23263 20.4205 5.78689 20.3893 5.44684C20.3592 5.11963 20.307 4.98015 20.2575 4.8955C20.1497 4.71132 19.9938 4.55691 19.8044 4.44895C19.7146 4.39781 19.5685 4.34541 19.2339 4.31548C18.8873 4.28448 18.4337 4.28364 17.7498 4.28364C17.0658 4.28364 16.6122 4.28448 16.2656 4.31548ZM7.70967 12.3525H7.78875C8.42269 12.3525 8.95736 12.3525 9.39369 12.3915C9.85099 12.4324 10.2874 12.5217 10.6949 12.7538C11.1569 13.0171 11.5421 13.3966 11.8105 13.8554C12.0481 14.2615 12.1395 14.6968 12.1812 15.1511C12.2209 15.5833 12.2209 16.1123 12.2208 16.7368V16.8174C12.2209 17.4419 12.2209 17.9709 12.1812 18.4031C12.1395 18.8574 12.0481 19.2927 11.8105 19.6988C11.5421 20.1576 11.1569 20.5371 10.6949 20.8003C10.2874 21.0325 9.85099 21.1218 9.39369 21.1627C8.95736 21.2017 8.42266 21.2017 7.78871 21.2017H7.70971C7.07576 21.2017 6.54107 21.2017 6.10473 21.1627C5.64743 21.1218 5.21106 21.0325 4.80354 20.8003C4.34147 20.5371 3.95629 20.1576 3.68787 19.6988C3.45029 19.2927 3.35897 18.8574 3.31725 18.4031C3.27756 17.9709 3.27757 17.4419 3.27759 16.8174V16.7368C3.27757 16.1123 3.27756 15.5833 3.31725 15.1511C3.35897 14.6968 3.45029 14.2615 3.68787 13.8554C3.95629 13.3966 4.34147 13.0171 4.80354 12.7538C5.21106 12.5217 5.64743 12.4324 6.10473 12.3915C6.54106 12.3525 7.07574 12.3525 7.70967 12.3525ZM6.26508 14.1843C5.93044 14.2143 5.78437 14.2667 5.69461 14.3178C5.50513 14.4258 5.34927 14.5802 5.24151 14.7644C5.19199 14.849 5.13976 14.9885 5.10971 15.3157C5.07847 15.6557 5.07759 16.1015 5.07759 16.7771C5.07759 17.4527 5.07847 17.8984 5.10971 18.2385C5.13976 18.5657 5.19199 18.7052 5.24151 18.7898C5.34927 18.974 5.50513 19.1284 5.69461 19.2364C5.78437 19.2875 5.93045 19.3399 6.26509 19.3698C6.61166 19.4008 7.06524 19.4017 7.74921 19.4017C8.43318 19.4017 8.88677 19.4008 9.23334 19.3698C9.56798 19.3399 9.71405 19.2875 9.80381 19.2364C9.99329 19.1284 10.1492 18.974 10.2569 18.7898C10.3064 18.7052 10.3587 18.5657 10.3887 18.2385C10.4199 17.8984 10.4208 17.4527 10.4208 16.7771C10.4208 16.1015 10.4199 15.6557 10.3887 15.3157C10.3587 14.9885 10.3064 14.849 10.2569 14.7644C10.1492 14.5802 9.99329 14.4258 9.80381 14.3178C9.71405 14.2667 9.56798 14.2143 9.23334 14.1843C8.88677 14.1533 8.43318 14.1525 7.74921 14.1525C7.06524 14.1525 6.61166 14.1533 6.26508 14.1843Z" fill="black" fill-opacity="0.8"/>
<path d="M15.492 13.5283C16.0601 13.5283 16.5206 13.9828 16.5206 14.5434C16.5206 15.104 16.0601 15.5585 15.492 15.5585C14.9239 15.5585 14.4634 15.104 14.4634 14.5434C14.4634 13.9828 14.9239 13.5283 15.492 13.5283Z" fill="black"/>
<path d="M17.8921 15.8969C18.4602 15.8969 18.9208 16.3513 18.9208 16.912C18.9208 17.4726 18.4602 17.927 17.8921 17.927C17.324 17.927 16.8635 17.4726 16.8635 16.912C16.8635 16.3513 17.324 15.8969 17.8921 15.8969Z" fill="black"/>
<path d="M20.2923 13.5283C20.8604 13.5283 21.3209 13.9828 21.3209 14.5434C21.3209 15.104 20.8604 15.5585 20.2923 15.5585C19.7242 15.5585 19.2636 15.104 19.2636 14.5434C19.2636 13.9828 19.7242 13.5283 20.2923 13.5283Z" fill="black"/>
<path d="M15.492 18.2654C16.0601 18.2654 16.5206 18.7199 16.5206 19.2805C16.5206 19.8411 16.0601 20.2956 15.492 20.2956C14.9239 20.2956 14.4634 19.8411 14.4634 19.2805C14.4634 18.7199 14.9239 18.2654 15.492 18.2654Z" fill="black"/>
<path d="M20.2923 18.2654C20.8604 18.2654 21.3209 18.7199 21.3209 19.2805C21.3209 19.8411 20.8604 20.2956 20.2923 20.2956C19.7242 20.2956 19.2636 19.8411 19.2636 19.2805C19.2636 18.7199 19.7242 18.2654 20.2923 18.2654Z" fill="black"/>
</svg>
