<svg width="27" height="27" viewBox="0 0 27 27" fill="none" xmlns="http://www.w3.org/2000/svg">
<path d="M15.6691 26.5403C14.6685 26.7081 13.7632 26.2113 13.549 25.4547C13.3837 24.8539 13.2959 24.2288 13.2231 23.615C12.9266 20.9302 11.3003 19.0427 9.49064 17.2895C8.69515 16.5196 7.62151 16.2635 6.50771 16.393C5.53927 16.5019 4.56322 16.6527 3.59665 16.775C3.15868 16.8229 2.70938 16.8861 2.27342 16.8524C1.68834 16.8125 1.06624 16.2217 0.974513 15.6649C0.879042 15.0815 1.11569 14.5599 1.58982 14.2898C2.82707 13.6005 4.05873 12.8712 5.37689 12.374C8.11518 11.338 9.30537 9.16321 9.86201 6.50771C9.98546 5.94778 9.77305 5.2994 9.67571 4.70268C9.48851 3.56243 9.22202 2.43336 9.1009 1.28383C9.03559 0.723298 9.3873 0.253347 9.97076 0.0899598C10.5542 -0.0734278 11.0579 0.154207 11.3422 0.643262C11.8111 1.4862 12.3101 2.35201 12.6146 3.2723C14.1599 7.84341 18.8863 10.5975 23.6008 9.6229C24.0331 9.53501 24.4542 9.3673 24.8941 9.33261C25.4396 9.28307 25.9755 9.4519 26.2768 9.9657C26.6289 10.5537 26.6394 11.2034 26.214 11.7244C25.8926 12.1222 25.4429 12.4703 24.9726 12.672C21.4863 14.1386 19.4268 17.0325 17.5805 20.0998C17.1113 20.8847 17.1306 21.9807 16.9556 22.9412C16.8091 23.8164 16.8022 24.7262 16.5425 25.563C16.4268 25.9862 15.8922 26.3055 15.6691 26.5403ZM18.9227 12.9661C17.6231 12.3485 16.4817 11.8985 15.4274 11.3006C14.3863 10.7009 13.4191 9.95511 12.3744 9.2338C11.4135 10.7389 10.5301 12.1245 9.56924 13.6296C11.3952 14.4446 12.5542 15.7873 13.6792 17.1756C13.9882 17.5526 14.405 17.8332 14.8669 18.2431C15.6006 17.2311 16.2209 16.3708 16.8694 15.52C17.5199 14.6825 18.1891 13.8831 18.9227 12.9661Z" fill="#007AFF"/>
</svg>