<svg width="41" height="20" viewBox="0 0 41 20" fill="none" xmlns="http://www.w3.org/2000/svg">
<path d="M35.0839 10.8093C34.7996 10.7677 34.5162 10.6911 34.2307 10.7022C31.9125 10.7553 29.6031 10.8087 27.2845 10.8793C23.7795 10.9935 20.2835 11.1079 16.7786 11.2221C12.266 11.3663 7.7619 11.5283 3.24968 11.6549C2.48286 11.6727 1.70832 11.6377 0.943488 11.5677C0.721202 11.5452 0.483874 11.3992 0.293063 11.1666C0.162623 11.0231 0.0555419 10.6341 0.0533677 10.3354C0.0511934 10.0367 0.168774 9.565 0.286549 9.47981C0.667387 9.18973 1.07495 8.90026 1.47657 8.87418C4.74375 8.63163 8.00124 8.424 11.2672 8.23414C16.3086 7.96133 21.358 7.72385 26.3989 7.4686C28.0584 7.38305 29.7261 7.33283 31.3852 7.26483C31.7779 7.23855 32.1714 7.17715 32.8147 7.10382C32.4994 6.46423 32.3644 6.12738 32.2096 5.87793C31.7015 5.09345 31.1647 4.39616 30.6841 3.57716C30.2469 2.81184 30.1885 1.84425 30.4464 1.07704C30.7238 0.239998 31.1343 0.21412 31.5583 0.381801C31.7259 0.455858 31.892 0.600153 32.0585 0.726889C34.1978 2.28605 36.3456 3.86297 38.4845 5.43969C38.5987 5.51254 38.6943 5.62011 38.8077 5.72808C40.4401 7.24067 40.5197 8.45471 39.0803 10.6359C38.1761 12.0034 37.2208 13.2644 36.2744 14.5256C35.2269 15.925 34.1709 17.3067 33.1157 18.6533C32.3999 19.5682 31.8376 19.6083 31.5173 18.7929C31.1549 17.8711 31.3186 16.5396 32.0112 15.466C32.5282 14.6695 33.1052 13.9797 33.6559 13.2718C34.1515 12.633 34.6553 12.0294 35.1506 11.4081C35.1189 11.2317 35.1058 11.0206 35.0839 10.8093Z" fill="#007AFF"/>
</svg>